Coordinates
version=1
nRows=14
nColumns=36
inDegrees=yes

Units are S.I. units (second, meters, Newtons, ...)
If the header above contains a line with 'inDegrees', this indicates whether rotational values are in degrees (yes) or radians (no).

endheader
time	pelvis_tilt	pelvis_list	pelvis_rotation	pelvis_tx	pelvis_ty	pelvis_tz	hip_flexion_r	hip_adduction_r	hip_rotation_r	knee_angle_r	knee_angle_r_beta	ankle_angle_r	subtalar_angle_r	mtp_angle_r	hip_flexion_l	hip_adduction_l	hip_rotation_l	knee_angle_l	knee_angle_l_beta	ankle_angle_l	subtalar_angle_l	mtp_angle_l	lumbar_extension	lumbar_bending	lumbar_rotation	arm_flex_r	arm_add_r	arm_rot_r	elbow_flex_r	pro_sup_r	arm_flex_l	arm_add_l	arm_rot_l	elbow_flex_l	pro_sup_l
      2.58333330	    -18.74788674	      0.69124998	      1.44400920	      0.35062118	      1.22088937	     -0.06268037	     30.79824249	     -1.97828622	     -0.14872571	     53.80478176	      0.93907060	      4.53074885	    -12.97170741	     -7.49999987	     31.92162537	     -4.82430019	     -0.83178443	     48.08149893	      0.83918047	      4.96445070	    -10.52931083	     -7.49999987	     -5.64061683	     -3.47947105	     -1.56742645	     41.73358296	    -18.62848739	      3.61420231	    147.03571680	     79.73163472	      4.59493941	    -29.12035720	     16.61795681	    132.25254238	    105.83251189
      2.60000000	    -17.60549821	      0.47603669	      1.30166480	      0.36965578	      1.21228217	     -0.07052696	     30.35908396	     -2.76430196	     -1.19304753	     49.73643268	      0.86806451	      0.51821782	    -12.53115535	     -7.49999987	     31.30206124	     -5.44969973	     -1.51421860	     43.67120079	      0.76220624	      1.63711545	    -10.29483819	     -7.49999987	     -6.48723035	     -3.10611793	     -0.75674450	     40.99663957	    -18.39189527	      4.38993974	    147.12808755	     79.31194641	      3.10149232	    -27.91584432	     17.31346513	    129.67505585	    105.45145571
      2.61666670	    -17.45065199	      0.15522820	      1.20468540	      0.38148723	      1.18939054	     -0.07194023	     32.15094117	     -3.27872372	     -2.27036180	     46.16617891	      0.80575183	     -3.23903845	    -11.06970634	     -7.49999987	     32.11731437	     -6.19676418	     -2.31519169	     39.88466856	      0.69611879	     -0.90211975	     -9.54836376	     -7.49999987	     -6.85421607	     -2.55694608	     -0.46406206	     41.58669128	    -17.98358211	      4.77157101	    147.78731579	     79.14085803	      2.03925977	    -26.61317592	     18.10519688	    128.48264140	    105.21462008
      2.63333330	    -16.52681343	     -0.50317043	      0.85306931	      0.39660103	      1.17443531	     -0.06614851	     31.90871928	     -3.09938755	     -3.81609890	     40.14282785	      0.70062452	     -8.76632638	    -11.46640952	     -7.49999987	     31.21903718	     -7.28220485	     -2.99322946	     33.72722507	      0.58865113	     -4.40802722	     -9.52041449	     -7.49999987	     -7.80915480	     -1.58896663	      0.56471104	     42.62932318	    -17.45670137	      5.73363864	    147.68133092	     78.78909279	      1.69515562	    -25.75845628	     18.21616480	    125.56012295	    105.33638260
      2.65000000	    -15.72076350	     -0.86003040	      0.56915877	      0.41351104	      1.15899554	     -0.06557041	     30.94146764	     -3.14402052	     -5.64024440	     32.79171408	      0.57232338	    -14.88190241	    -10.52079056	     -7.49999987	     30.26555061	     -8.41778735	     -4.37683700	     28.10711545	      0.49056171	    -10.49961838	     -9.05704590	     -7.49999987	     -9.01411863	     -1.19312121	      1.15872995	     42.89875498	    -16.93097866	      6.23141405	    147.79722554	     78.46932510	      0.91862123	    -25.45528757	     18.64965100	    122.73069899	    105.85628573
      2.66666670	    -15.58092622	     -1.06505579	      0.23188303	      0.41900728	      1.12960282	     -0.06365329	     30.80742680	     -3.09611954	     -7.80954590	     24.71739475	      0.43139992	    -20.51588001	     -7.87935198	     -7.49999987	     30.10914681	     -9.24917836	     -5.69787051	     21.41754622	      0.37380670	    -17.73683508	     -7.29074842	     -7.49999987	     -9.82077276	     -1.13313225	      1.57573846	     44.49959516	    -15.74186915	      6.89150871	    148.07923562	     78.60056242	      1.02227903	    -25.71536121	     18.95774675	    121.65387897	    107.07948632
      2.68333330	    -15.37046040	     -0.61733078	      0.43385724	      0.43166307	      1.09490754	     -0.06452152	     31.41645960	     -3.87145814	     -9.78255235	     19.36948906	      0.33806136	    -23.65169557	     -5.24636878	     -7.49999987	     30.67496458	     -9.05841660	     -5.87767261	     17.91549084	      0.31268430	    -21.49011884	     -7.25610324	     -7.49999987	    -10.69058958	     -1.71979534	      1.17615393	     45.90909320	    -15.14816194	      8.39684347	    148.19615151	     77.08723678	      1.48362679	    -26.28064591	     19.27797175	    120.71366122	    103.61034825
      2.70000000	    -14.87969365	     -0.12884437	      0.60179284	      0.45188911	      1.05919255	     -0.06567348	     31.59872458	     -4.71103016	    -11.67165295	     15.51820454	      0.27084376	    -25.20496373	     -2.94597462	     -7.49999987	     31.03898462	     -8.80161119	     -6.36975574	     15.04893671	      0.26265349	    -24.67268414	     -7.11486400	     -7.49999987	    -11.21493788	     -2.02935577	      0.55391295	     47.48288735	    -14.50266139	     10.18774770	    148.27180481	     76.22754487	      0.93630195	    -26.67133313	     18.40525819	    120.31440296	    102.69590389
      2.71666670	    -13.85390091	      0.24364765	      0.64357708	      0.48400351	      1.02719877	     -0.06750936	     29.91427495	     -5.22782593	    -12.91928364	     11.86437698	      0.20707244	    -25.71742600	     -0.91962156	     -7.49999987	     29.75977257	     -8.60514002	     -7.35364286	     13.20512999	      0.23047300	    -26.02072288	     -7.35744003	     -7.49999987	    -10.81049619	     -2.32677168	      0.59840814	     46.52235367	    -14.02742740	     11.07201475	    148.44550941	     75.85060612	     -0.81491096	    -26.61106729	     18.25701980	    118.56319668	    101.63292601
      2.73333330	    -13.21934500	      0.19973775	      0.62330813	      0.49460428	      0.98578367	     -0.06798045	     30.32450168	     -5.56894772	    -12.58449087	     12.09518327	      0.21110077	    -24.20398829	      0.43511576	     -7.49999987	     30.20152330	     -8.89511260	     -7.37534172	     13.91639913	      0.24288698	    -24.41566266	     -6.52057583	     -7.49999987	    -10.56534295	     -2.28893039	      0.71557787	     45.48159024	    -14.09573854	     11.53186169	    148.47606175	     75.39297353	     -2.08860431	    -26.01866465	     18.21411411	    117.45714276	     99.77406593
      2.75000000	    -12.93022501	     -0.53931481	      0.87581980	      0.50578104	      0.94601911	     -0.06488842	     32.32596081	     -5.38239258	    -11.94431121	     15.49359765	      0.27041429	    -20.02747859	     -0.29006676	     -7.49999987	     33.07893656	    -10.08898695	     -6.46083989	     18.19445156	      0.31755309	    -21.01156094	     -7.09106679	     -7.49999987	    -10.88291150	     -1.45396561	     -0.35599463	     45.69974906	    -13.05449707	     13.08278769	    148.56425079	     78.31695451	     -3.88584115	    -25.39876871	     16.73725459	    117.01262852	    103.12722072
      2.76666670	    -13.52240517	     -1.23265916	      0.91848633	      0.51409642	      0.90311191	     -0.06690656	     37.24484490	     -5.36897024	    -10.25384595	     24.10077026	      0.42063779	    -11.89182332	     -3.56593011	     -7.49999987	     37.80042809	    -11.16646492	     -5.31545182	     26.81854254	      0.46807187	    -11.95822615	     -7.92487458	     -7.49999987	    -11.11879352	     -0.77899802	     -1.38283052	     46.56979366	    -12.02790268	     13.37520954	    148.65332538	     76.95684630	     -2.98719416	    -24.99897334	     17.99926230	    116.63215070	     98.89576561
      2.78333330	    -14.78447544	     -1.62646759	      1.03829506	      0.52615943	      0.86728042	     -0.06336322	     43.37424273	     -5.27108859	     -8.34051577	     35.24735934	      0.61518247	     -2.48545181	     -7.75298815	     -7.49999987	     43.93245735	    -12.21003360	     -4.20168972	     37.09190289	      0.64737583	     -2.30128241	     -8.16753185	     -7.49999987	    -10.97499874	     -0.35071915	     -2.75935390	     48.99768477	    -11.15792823	     15.67386608	    148.91754613	     82.01025547	     -2.88678091	    -25.34905820	     18.52660556	    116.90042695	    104.57181130
      2.80000000	    -15.87892565	     -1.70377575	      1.12648409	      0.53846411	      0.82823279	     -0.06294446	     50.28057447	     -5.22282023	     -6.47798262	     47.75116185	      0.83341500	      6.23970505	    -11.26779224	     -7.49999987	     50.21046947	    -12.92695317	     -3.12624387	     47.83997839	      0.83496514	      6.97144800	     -8.10839528	     -7.49999987	    -11.00510739	     -0.26857192	     -3.56191021	     50.67375359	    -10.92802528	     18.80409226	    149.11464487	     83.78674094	     -3.07796184	    -25.69866768	     19.69162369	    116.01060424	    103.97330491
